HIERARCHY
ROOT joint_0
{
	OFFSET 0.000000 0.000000 0.000000
	CHANNELS 6 Xposition Yposition Zposition Zrotation Yrotation Xrotation 
	JOINT joint_1
	{
		OFFSET 14.113007 -2.961990 123.953979
		CHANNELS 3 Zrotation Yrotation Xrotation
		JOINT joint_2
		{
			OFFSET 0.764000 -2.434006 113.871948
			CHANNELS 3 Zrotation Yrotation Xrotation
			JOINT joint_3
			{
				OFFSET 0.186996 -2.169998 113.753052
				CHANNELS 3 Zrotation Yrotation Xrotation
				JOINT joint_4
				{
					OFFSET 16.096001 -2.720001 160.853027
					CHANNELS 3 Zrotation Yrotation Xrotation
					JOINT joint_5
					{
						OFFSET 34.392006 -0.188995 92.567017
						CHANNELS 3 Zrotation Yrotation Xrotation
						End Site
						{
							OFFSET 0.000000 0.000000 0.000000
						}
					}
				}
				JOINT joint_6
				{
					OFFSET 9.183998 -36.684006 89.597046
					CHANNELS 3 Zrotation Yrotation Xrotation
					JOINT joint_7
					{
						OFFSET 0.486000 -164.365997 -28.984009
						CHANNELS 3 Zrotation Yrotation Xrotation
						JOINT joint_8
						{
							OFFSET 38.899002 -34.967010 -291.651978
							CHANNELS 3 Zrotation Yrotation Xrotation
							JOINT joint_9
							{
								OFFSET 41.714005 -45.890991 -258.857056
								CHANNELS 3 Zrotation Yrotation Xrotation
								End Site
								{
									OFFSET 0.000000 0.000000 0.000000
								}
							}
						}
					}
				}
				JOINT joint_10
				{
					OFFSET 8.867004 33.650002 90.817993
					CHANNELS 3 Zrotation Yrotation Xrotation
					JOINT joint_11
					{
						OFFSET 0.018997 164.299999 -29.368042
						CHANNELS 3 Zrotation Yrotation Xrotation
						JOINT joint_12
						{
							OFFSET 29.440994 30.887997 -293.216919
							CHANNELS 3 Zrotation Yrotation Xrotation
							JOINT joint_13
							{
								OFFSET 46.174011 54.490005 -256.422058
								CHANNELS 3 Zrotation Yrotation Xrotation
								End Site
								{
									OFFSET 0.000000 0.000000 0.000000
								}
							}
						}
					}
				}
			}
		}
	}
	JOINT joint_14
	{
		OFFSET -2.264000 -89.466995 -116.150024
		CHANNELS 3 Zrotation Yrotation Xrotation
		JOINT joint_15
		{
			OFFSET -16.400993 -17.452988 -493.781982
			CHANNELS 3 Zrotation Yrotation Xrotation
			JOINT joint_16
			{
				OFFSET -50.497004 -13.404022 -424.754013
				CHANNELS 3 Zrotation Yrotation Xrotation
				JOINT joint_17
				{
					OFFSET 198.546007 -19.341003 -89.309000
					CHANNELS 3 Zrotation Yrotation Xrotation
					End Site
					{
						OFFSET 0.000000 0.000000 0.000000
					}
				}
			}
		}
	}
	JOINT joint_18
	{
		OFFSET -0.867996 96.016006 -110.817993
		CHANNELS 3 Zrotation Yrotation Xrotation
		JOINT joint_19
		{
			OFFSET -10.130997 24.658998 -493.645020
			CHANNELS 3 Zrotation Yrotation Xrotation
			JOINT joint_20
			{
				OFFSET -48.871004 19.434999 -424.714005
				CHANNELS 3 Zrotation Yrotation Xrotation
				JOINT joint_21
				{
					OFFSET 195.579996 24.926001 -94.327003
					CHANNELS 3 Zrotation Yrotation Xrotation
					End Site
					{
						OFFSET 0.000000 0.000000 0.000000
					}
				}
			}
		}
	}
}
MOTION
Frames: 17
Frame Time: 0.016667
-2557.038574 885.832275 1122.404053 -10.352645 2.037208 -2.209502 -0.107700 1.234962 2.083098 -0.066950 -0.148041 -0.326137 -0.060250 0.301852 0.303738 0.949574 -5.439907 -1.987422 0.000000 0.000000 0.000000 -0.413237 -13.501246 -0.838591 -0.105016 -11.183172 -11.743099 12.231998 -54.504567 9.688575 0.000000 0.000000 0.000000 -1.317283 -7.465858 1.520551 5.468544 -1.716435 13.058584 -6.096505 -85.792367 -31.285545 0.000000 0.000000 0.000000 8.804549 1.860284 -1.551701 7.765055 23.310940 7.230533 10.713557 -6.317634 3.617070 0.000000 0.000000 0.000000 -1.050588 -21.379373 15.406423 -1.197343 23.370591 -5.138878 -4.551983 2.847502 -2.409110 0.000000 0.000000 0.000000 
-2544.025879 887.879028 1118.368042 -11.835471 1.773100 -2.659299 0.035769 2.015324 1.971258 0.029896 -0.334656 -0.381957 0.046708 0.392718 0.254039 0.924724 -5.426957 -1.860215 0.000000 0.000000 0.000000 -0.086033 -13.833764 -1.404214 0.043404 -11.516157 -11.131870 12.185875 -53.268779 9.154616 0.000000 0.000000 0.000000 -1.613584 -7.629371 1.806095 5.549271 -1.671510 13.151267 -5.878227 -87.117642 -30.462763 0.000000 0.000000 0.000000 9.848854 -1.057036 -2.619269 8.260789 29.727622 9.998659 12.725931 -5.314138 4.395146 0.000000 0.000000 0.000000 -1.448756 -19.081168 15.787457 -1.486041 18.318122 -4.173295 -3.990614 3.218112 -2.214962 0.000000 0.000000 0.000000 
-2532.378906 890.259949 1114.390991 -13.417593 1.664519 -2.879876 0.260237 2.474983 1.519121 0.145136 -0.370554 -0.394027 0.155881 0.491241 0.146772 0.938268 -5.289688 -1.846462 0.000000 0.000000 0.000000 0.058336 -14.547428 -1.531808 0.104767 -12.093311 -10.959448 12.233503 -51.908637 8.933076 0.000000 0.000000 0.000000 -2.245990 -8.103177 2.048681 6.128016 -1.855206 13.972444 -5.246514 -88.583572 -30.757894 0.000000 0.000000 0.000000 11.508952 -5.034530 -4.539810 9.382920 36.924511 13.868188 16.466994 -3.062723 5.892932 0.000000 0.000000 0.000000 -0.935390 -18.609909 15.633388 -0.529447 18.984796 -3.465213 -3.102050 1.316536 -1.556925 0.000000 0.000000 0.000000 
-2521.625488 892.759216 1110.318970 -14.968859 1.586900 -2.748530 0.536897 2.869144 0.436632 0.223529 -0.378788 -0.156292 0.216224 0.594494 0.011349 0.962041 -5.040285 -1.876440 0.000000 0.000000 0.000000 0.140174 -15.474717 -1.447214 0.092637 -12.774545 -11.000379 12.335628 -50.627723 8.939861 0.000000 0.000000 0.000000 -3.026020 -8.789873 2.292342 7.000961 -2.201702 15.248358 175.667017 -89.853325 148.301127 0.000000 0.000000 0.000000 13.267118 -9.496271 -7.249528 10.793125 44.238102 18.054555 21.636573 0.812910 8.013098 0.000000 0.000000 0.000000 -0.051486 -19.019511 14.997425 1.095101 22.780466 -3.038939 -2.057666 -1.838946 -0.666887 0.000000 0.000000 0.000000 
-2511.698975 894.699036 1105.942993 -16.127945 1.386508 -2.560322 0.798573 3.540997 -0.590949 0.180620 -0.517727 0.103725 0.137775 0.704272 -0.103176 0.966249 -4.701159 -1.890775 0.000000 0.000000 0.000000 0.171204 -16.454509 -1.362896 0.037214 -13.459726 -11.011032 12.504364 -49.780971 9.222608 0.000000 0.000000 0.000000 -3.522203 -9.657550 2.428487 7.736481 -2.735029 16.478992 176.426873 -88.569153 147.488210 0.000000 0.000000 0.000000 14.246464 -13.507703 -9.663938 11.749373 50.635854 20.836671 25.685740 4.329326 9.698649 0.000000 0.000000 0.000000 0.597733 -19.413457 14.561569 2.436884 26.488961 -2.873752 -1.266529 -4.450038 0.028463 0.000000 0.000000 0.000000 
-2503.009766 895.921387 1100.753052 -16.848267 1.182539 -2.517300 1.001643 4.286552 -1.141224 0.026216 -0.639650 0.218749 -0.064222 0.834103 -0.181368 0.943716 -4.224864 -1.887675 0.000000 0.000000 0.000000 0.150338 -17.533911 -1.397266 -0.080718 -14.185660 -10.857391 12.767236 -49.594848 9.941600 0.000000 0.000000 0.000000 -3.516238 -10.890132 2.397451 8.228709 -3.607751 17.529860 176.846727 -87.831661 146.886371 0.000000 0.000000 0.000000 14.382620 -17.252872 -11.358584 12.050320 56.543250 21.959843 27.107101 5.749833 10.286282 0.000000 0.000000 0.000000 0.782923 -19.942980 14.834782 3.193592 29.552727 -3.247745 -1.045685 -6.263011 0.364651 0.000000 0.000000 0.000000 
-2495.149414 896.585144 1095.259033 -17.324824 0.988746 -2.530274 1.197751 5.040828 -1.427646 -0.175808 -0.738875 0.260769 -0.321996 0.974375 -0.238756 0.905165 -3.652607 -1.877956 0.000000 0.000000 0.000000 0.064176 -18.672061 -1.444231 -0.240170 -14.910254 -10.641380 13.086243 -49.881494 10.909514 0.000000 0.000000 0.000000 -3.226022 -12.345991 2.202344 8.569843 -4.679435 18.517234 177.061374 -87.424556 146.419732 0.000000 0.000000 0.000000 14.141648 -20.949383 -12.674740 12.085528 61.945795 22.132479 26.750857 5.816286 10.118265 0.000000 0.000000 0.000000 0.770864 -20.619617 15.467260 3.707338 32.673398 -3.944522 -1.134674 -7.723807 0.521004 0.000000 0.000000 0.000000 
-2486.824707 896.492371 1090.784058 -17.564780 0.770982 -2.526678 1.382495 5.773360 -1.569053 -0.388300 -0.878266 0.287321 -0.599080 1.099303 -0.271105 0.848008 -3.123580 -1.822823 0.000000 0.000000 0.000000 -0.102422 -19.540641 -1.434998 -0.338805 -15.426892 -10.452054 13.384892 -50.435295 11.644496 0.000000 0.000000 0.000000 -2.878656 -13.453886 1.852783 8.547135 -5.489015 19.281915 176.983039 -86.972150 146.841712 0.000000 0.000000 0.000000 13.637510 -24.208291 -13.722488 11.956567 65.751097 21.631247 24.975110 5.459844 9.380792 0.000000 0.000000 0.000000 0.697035 -20.873981 15.919484 4.055086 34.990283 -4.451167 -1.218709 -8.939615 0.648846 0.000000 0.000000 0.000000 
-2477.325684 895.812378 1087.838989 -17.597914 0.580309 -2.536616 1.513026 6.314379 -1.470238 -0.560739 -1.010080 0.280310 -0.827735 1.217914 -0.269554 0.768649 -2.658791 -1.702710 0.000000 0.000000 0.000000 -0.373344 -19.959007 -1.374994 -0.322493 -15.640462 -10.361011 13.660097 -51.337171 11.906619 0.000000 0.000000 0.000000 -2.514965 -13.931274 1.266847 7.902600 -5.822535 19.702341 176.395306 -86.253882 148.897342 0.000000 0.000000 0.000000 12.650462 -26.996936 -14.521399 11.400357 67.587671 20.440693 21.017775 5.090690 7.850516 0.000000 0.000000 0.000000 0.613271 -20.493368 16.027462 4.282987 36.096902 -4.631469 -1.149170 -10.152953 0.842394 0.000000 0.000000 0.000000 
-2467.363037 894.375793 1085.911987 -17.489015 0.461742 -2.572694 1.562575 6.625187 -1.172389 -0.674407 -1.083918 0.235145 -0.966842 1.330238 -0.243360 0.669750 -2.234189 -1.525007 0.000000 0.000000 0.000000 -0.732117 -20.086761 -1.289332 -0.235805 -15.666349 -10.298726 13.932314 -52.527818 11.948279 0.000000 0.000000 0.000000 -2.103044 -14.019626 0.544463 6.893844 -5.884308 19.880226 175.486887 -85.455304 151.878911 0.000000 0.000000 0.000000 11.241867 -29.484652 -14.965829 10.375310 67.756857 18.654324 15.601573 4.382466 5.808080 0.000000 0.000000 0.000000 0.514875 -19.828452 16.011796 4.386797 36.482605 -4.676793 -1.066184 -11.289717 1.031159 0.000000 0.000000 0.000000 
-2457.774170 891.483643 1084.796997 -17.251981 0.391426 -2.565221 1.546183 6.834154 -0.926841 -0.750225 -1.142382 0.196983 -1.044278 1.401968 -0.214930 0.557248 -1.916009 -1.292416 0.000000 0.000000 0.000000 -1.146519 -20.087692 -1.161157 -0.122173 -15.611305 -10.135338 14.169519 -53.618781 12.027703 0.000000 0.000000 0.000000 -1.780919 -13.886611 0.001815 6.067434 -5.826097 19.998993 174.757435 -84.752157 154.460473 0.000000 0.000000 0.000000 10.001773 -31.551577 -15.082329 9.343641 66.480317 16.789705 11.307009 3.416670 4.229064 0.000000 0.000000 0.000000 0.433580 -19.214145 15.936182 4.365063 36.679266 -4.584792 -1.074916 -12.078848 1.133762 0.000000 0.000000 0.000000 
-2448.902588 886.694397 1084.680054 -16.947528 0.386652 -2.498962 1.457615 6.909639 -0.824117 -0.772745 -1.172190 0.169429 -1.041727 1.413089 -0.189065 0.422225 -1.747671 -0.977241 0.000000 0.000000 0.000000 -1.651079 -20.006717 -0.918624 0.033670 -15.498426 -9.792736 14.381363 -54.464544 12.231165 0.000000 0.000000 0.000000 -1.617294 -13.478778 -0.217205 5.583553 -5.619040 20.101805 174.377261 -84.082951 156.361632 0.000000 0.000000 0.000000 9.195067 -33.106618 -14.891586 8.486372 63.699099 14.915508 8.797875 2.531213 3.366856 0.000000 0.000000 0.000000 0.404036 -18.771306 15.831859 4.223891 36.826357 -4.318378 -1.208553 -12.374489 1.116268 0.000000 0.000000 0.000000 
-2440.405762 880.449463 1085.375000 -16.556054 0.453421 -2.401469 1.307093 6.829275 -0.759841 -0.739156 -1.159382 0.140452 -0.960527 1.384522 -0.161298 0.271414 -1.687964 -0.602429 0.000000 0.000000 0.000000 -2.204195 -19.795704 -0.625739 0.216211 -15.304236 -9.365152 14.560401 -55.193512 12.480328 0.000000 0.000000 0.000000 -1.542354 -12.858994 -0.266691 5.316852 -5.296322 20.156068 174.207999 -83.506205 157.815451 0.000000 0.000000 0.000000 8.629937 -34.108473 -14.472542 7.650404 59.510204 12.919491 7.317060 1.900358 2.889180 0.000000 0.000000 0.000000 0.389698 -18.395518 15.702466 3.977173 36.787283 -3.926979 -1.425878 -12.339737 1.017871 0.000000 0.000000 0.000000 
-2432.090332 873.367432 1086.110962 -16.004115 0.575321 -2.288619 1.158609 6.678625 -0.654200 -0.678586 -1.117811 0.108373 -0.854163 1.346486 -0.132132 0.133914 -1.678600 -0.250966 0.000000 0.000000 0.000000 -2.665974 -19.486003 -0.474266 0.330677 -15.065205 -8.962763 14.641325 -55.829384 12.787383 0.000000 0.000000 0.000000 -1.486213 -12.354445 -0.273810 5.336677 -5.081031 20.241293 174.233997 -83.372210 158.405889 0.000000 0.000000 0.000000 8.315413 -34.607633 -14.000581 6.987208 54.609471 11.120035 6.948063 1.125777 2.739051 0.000000 0.000000 0.000000 0.316344 -18.103062 15.609504 3.643532 36.685836 -3.550735 -1.716330 -12.171498 0.870647 0.000000 0.000000 0.000000 
-2423.994141 865.648804 1086.895020 -15.311406 0.828493 -2.178243 1.020680 6.381474 -0.468437 -0.563223 -1.009417 0.072518 -0.692632 1.297896 -0.111074 0.017334 -1.735065 0.056230 0.000000 0.000000 0.000000 -2.977409 -19.031952 -0.571021 0.332066 -14.773189 -8.603156 14.580516 -56.407927 13.185037 0.000000 0.000000 0.000000 -1.399753 -12.087550 -0.277868 5.700452 -5.058415 20.439130 174.469378 -83.851635 157.851240 0.000000 0.000000 0.000000 8.431877 -34.599645 -13.521409 6.757330 48.517932 9.627942 7.908991 -0.548681 2.957160 0.000000 0.000000 0.000000 0.193180 -17.974043 15.562068 3.229061 36.502339 -3.187725 -2.071935 -11.868794 0.677760 0.000000 0.000000 0.000000 
-2416.080811 857.092957 1087.720947 -14.339833 1.066248 -2.014470 0.854835 6.160960 -0.281831 -0.464614 -0.950889 0.048995 -0.556214 1.243469 -0.089913 -0.089069 -1.847656 0.343658 0.000000 0.000000 0.000000 -3.194666 -18.491499 -0.795691 0.262066 -14.443857 -8.264293 14.417735 -56.864287 13.634890 0.000000 0.000000 0.000000 -1.326551 -11.944817 -0.246105 6.256617 -5.131582 20.718871 174.824214 -84.797021 156.557111 0.000000 0.000000 0.000000 8.824027 -33.801273 -13.058442 6.978625 41.144615 8.112500 9.360390 -2.241705 3.370904 0.000000 0.000000 0.000000 -0.024696 -17.881099 15.493067 2.689272 36.248988 -2.815449 -2.525502 -11.417550 0.423230 0.000000 0.000000 0.000000 
-2408.038086 847.708740 1087.802979 -13.008559 1.061846 -1.767300 0.664636 6.264432 -0.137098 -0.469773 -1.035882 0.045577 -0.538999 1.215790 -0.050876 -0.183534 -1.919602 0.596696 0.000000 0.000000 0.000000 -3.349845 -18.045406 -0.999451 0.151714 -14.152270 -7.995879 14.211343 -57.099713 14.044110 0.000000 0.000000 0.000000 -1.335559 -11.879089 -0.173537 6.766100 -5.250147 20.955848 175.129231 -86.064555 155.148503 0.000000 0.000000 0.000000 9.082215 -32.434666 -12.658151 7.323334 34.692089 6.459504 10.228947 -2.841292 3.675236 0.000000 0.000000 0.000000 -0.418055 -17.621718 15.466606 2.038949 36.098036 -2.594809 -3.087094 -11.016161 0.130463 0.000000 0.000000 0.000000 
